<?xml version="1.0" standalone="no"?>
<!DOCTYPE svg PUBLIC "-//W3C//DTD SVG 20010904//EN"
 "http://www.w3.org/TR/2001/REC-SVG-20010904/DTD/svg10.dtd">
<svg version="1.0" xmlns="http://www.w3.org/2000/svg"
 width="192.000000pt" height="192.000000pt" viewBox="0 0 192.000000 192.000000"
 preserveAspectRatio="xMidYMid meet">
<metadata>
Created by potrace 1.14, written by Peter Selinger 2001-2017
</metadata>
<g transform="translate(0.000000,192.000000) scale(0.100000,-0.100000)"
fill="#000000" stroke="none">
<path d="M1150 1916 c-3 -3 -24 -8 -46 -10 -22 -3 -87 -22 -144 -41 -206 -72
-380 -184 -551 -354 -94 -94 -209 -237 -209 -259 0 -7 -4 -12 -9 -12 -8 0
-120 -216 -125 -242 -2 -7 -11 -40 -21 -73 -22 -70 -21 -66 -33 -130 -14 -71
-12 -248 4 -324 26 -124 106 -256 196 -326 21 -17 44 -35 51 -40 37 -32 159
-78 247 -94 45 -8 211 -8 270 0 182 26 413 120 563 231 87 64 187 175 227 249
17 33 28 59 25 59 -3 0 -27 -21 -53 -46 -26 -25 -72 -65 -102 -87 -30 -23 -57
-44 -60 -47 -12 -12 -93 -61 -164 -100 -73 -40 -215 -94 -274 -105 -15 -3 -38
-8 -52 -11 -41 -11 -234 -13 -276 -4 -22 5 -54 12 -73 15 -18 3 -49 12 -67 20
-19 8 -34 12 -34 9 0 -16 -133 68 -176 112 -95 93 -136 211 -129 368 13 336
211 672 531 901 103 75 274 158 369 181 291 71 548 -2 674 -193 37 -56 38 -67
6 -98 -23 -24 -30 -25 -149 -25 l-125 0 13 38 c8 21 23 58 34 83 37 81 36 84
-38 84 -75 1 -90 -2 -90 -20 0 -6 -6 -25 -14 -41 -7 -16 -24 -55 -37 -86 l-24
-58 -58 0 -57 0 -24 -54 c-43 -97 -44 -94 15 -94 28 -1 53 -3 55 -5 3 -3 -114
-291 -157 -385 -61 -134 -12 -232 118 -234 104 -2 194 42 269 132 22 25 104
196 104 215 0 3 -33 5 -74 5 l-74 0 -18 -37 c-9 -21 -17 -39 -16 -41 1 -1 -9
-25 -23 -53 -30 -58 -81 -88 -125 -72 -32 11 -32 25 -2 93 13 30 25 60 26 65
2 6 12 30 23 55 11 25 39 93 63 152 l44 108 36 0 c19 1 96 1 170 1 120 1 157
4 249 23 59 13 99 91 86 172 -11 76 -108 210 -210 290 -47 37 -143 95 -165 99
-8 2 -33 11 -55 21 -30 14 -75 19 -185 22 -80 2 -147 1 -150 -2z"/>
<path d="M832 1284 c-79 -23 -157 -104 -196 -204 -10 -25 -24 -58 -31 -75 -8
-16 -63 -149 -124 -295 l-110 -265 61 -3 c70 -4 70 -4 112 101 17 39 34 75 39
78 5 4 30 7 55 7 90 2 143 27 219 101 45 45 193 397 193 459 0 93 -92 134
-218 96z m74 -129 c6 -15 -112 -318 -142 -362 -19 -29 -57 -45 -101 -41 l-33
3 25 53 c13 29 25 56 26 60 0 4 8 23 16 42 8 19 33 78 54 130 22 52 49 103 62
112 28 22 85 24 93 3z"/>
</g>
</svg>
