<svg width="70" height="68" viewBox="0 0 50 38" fill="none" xmlns="http://www.w3.org/2000/svg">
<path d="M25.5 15.5C25.5 15.0858 25.1642 14.75 24.75 14.75C24.3358 14.75 24 15.0858 24 15.5H25.5ZM24.75 36.5H24C24 36.7489 24.1235 36.9815 24.3295 37.1211C24.5356 37.2606 24.7975 37.2888 25.0285 37.1964L24.75 36.5ZM42.25 29.5L42.5285 30.1964C42.8133 30.0825 43 29.8067 43 29.5H42.25ZM43 14.9475C43 14.5333 42.6642 14.1975 42.25 14.1975C41.8358 14.1975 41.5 14.5333 41.5 14.9475H43ZM25.2038 14.9029C24.874 14.6522 24.4035 14.7164 24.1529 15.0462C23.9022 15.376 23.9664 15.8465 24.2962 16.0971L25.2038 14.9029ZM31 20.25L30.5462 20.8471C30.7687 21.0163 31.0669 21.0476 31.3198 20.9284L31 20.25ZM42.5698 15.6259C42.9444 15.4493 43.105 15.0024 42.9284 14.6277C42.7518 14.2531 42.3049 14.0925 41.9302 14.2691L42.5698 15.6259ZM24.4715 14.8036C24.0869 14.9575 23.8998 15.394 24.0536 15.7785C24.2075 16.1631 24.644 16.3502 25.0285 16.1964L24.4715 14.8036ZM42.5285 9.19636C42.9131 9.04252 43.1002 8.60605 42.9464 8.22146C42.7925 7.83687 42.356 7.64981 41.9715 7.80364L42.5285 9.19636ZM41.9715 9.19636C42.356 9.35019 42.7925 9.16313 42.9464 8.77854C43.1002 8.39396 42.9131 7.95748 42.5285 7.80364L41.9715 9.19636ZM25.0285 0.803643C24.644 0.649807 24.2075 0.836869 24.0536 1.22146C23.8998 1.60604 24.0869 2.04252 24.4715 2.19636L25.0285 0.803643ZM42.6164 7.84562C42.255 7.64324 41.798 7.77214 41.5956 8.13355C41.3932 8.49495 41.5221 8.95199 41.8835 9.15438L42.6164 7.84562ZM48.5 12L48.8199 12.6784C49.0739 12.5586 49.2397 12.3069 49.2495 12.0262C49.2593 11.7455 49.1115 11.4829 48.8665 11.3456L48.5 12ZM41.9301 14.2692C41.5554 14.4458 41.395 14.8928 41.5716 15.2674C41.7483 15.6421 42.1953 15.8025 42.5699 15.6259L41.9301 14.2692ZM6.97146 7.80364C6.58687 7.95748 6.39981 8.39396 6.55364 8.77854C6.70748 9.16313 7.14395 9.35019 7.52854 9.19636L6.97146 7.80364ZM25.0285 2.19636C25.4131 2.04252 25.6002 1.60604 25.4464 1.22146C25.2925 0.836869 24.856 0.649807 24.4715 0.803643L25.0285 2.19636ZM7.61645 9.15438C7.97786 8.95199 8.10677 8.49495 7.90438 8.13355C7.70199 7.77214 7.24495 7.64324 6.88355 7.84562L7.61645 9.15438ZM1 12L0.633547 11.3456C0.388497 11.4829 0.240654 11.7455 0.250457 12.0262C0.260259 12.3069 0.426064 12.5586 0.68009 12.6784L1 12ZM6.93009 15.6259C7.30473 15.8025 7.75167 15.6421 7.92835 15.2674C8.10503 14.8928 7.94455 14.4458 7.56991 14.2692L6.93009 15.6259ZM7.52854 7.80364C7.14395 7.64981 6.70748 7.83687 6.55364 8.22146C6.39981 8.60605 6.58687 9.04252 6.97146 9.19636L7.52854 7.80364ZM24.4715 16.1964C24.856 16.3502 25.2925 16.1631 25.4464 15.7785C25.6002 15.394 25.4131 14.9575 25.0285 14.8036L24.4715 16.1964ZM25.5 15.5C25.5 15.0858 25.1642 14.75 24.75 14.75C24.3358 14.75 24 15.0858 24 15.5H25.5ZM24.75 36.5L24.4715 37.1964C24.7025 37.2888 24.9644 37.2606 25.1705 37.1211C25.3765 36.9815 25.5 36.7489 25.5 36.5H24.75ZM7.25 29.5H6.5C6.5 29.8067 6.68671 30.0825 6.97146 30.1964L7.25 29.5ZM8 14.9475C8 14.5333 7.66421 14.1975 7.25 14.1975C6.83579 14.1975 6.5 14.5333 6.5 14.9475H8ZM25.2038 16.0971C25.5336 15.8465 25.5978 15.376 25.3471 15.0462C25.0965 14.7164 24.626 14.6522 24.2962 14.9029L25.2038 16.0971ZM18.5 20.25L18.1802 20.9284C18.4331 21.0476 18.7313 21.0163 18.9538 20.8471L18.5 20.25ZM7.56976 14.2691C7.19508 14.0925 6.74818 14.2531 6.57158 14.6277C6.39498 15.0024 6.55556 15.4493 6.93024 15.6259L7.56976 14.2691ZM24 15.5V36.5H25.5V15.5H24ZM25.0285 37.1964L42.5285 30.1964L41.9715 28.8036L24.4715 35.8036L25.0285 37.1964ZM43 29.5V14.9475H41.5V29.5H43ZM24.2962 16.0971L30.5462 20.8471L31.4538 19.6529L25.2038 14.9029L24.2962 16.0971ZM31.3198 20.9284L42.5698 15.6259L41.9302 14.2691L30.6802 19.5716L31.3198 20.9284ZM25.0285 16.1964L42.5285 9.19636L41.9715 7.80364L24.4715 14.8036L25.0285 16.1964ZM42.5285 7.80364L25.0285 0.803643L24.4715 2.19636L41.9715 9.19636L42.5285 7.80364ZM41.8835 9.15438L48.1335 12.6544L48.8665 11.3456L42.6164 7.84562L41.8835 9.15438ZM48.1801 11.3217L41.9301 14.2692L42.5699 15.6259L48.8199 12.6784L48.1801 11.3217ZM7.52854 9.19636L25.0285 2.19636L24.4715 0.803643L6.97146 7.80364L7.52854 9.19636ZM6.88355 7.84562L0.633547 11.3456L1.36645 12.6544L7.61645 9.15438L6.88355 7.84562ZM0.68009 12.6784L6.93009 15.6259L7.56991 14.2692L1.31991 11.3217L0.68009 12.6784ZM6.97146 9.19636L24.4715 16.1964L25.0285 14.8036L7.52854 7.80364L6.97146 9.19636ZM24 15.5V36.5H25.5V15.5H24ZM25.0285 35.8036L7.52854 28.8036L6.97146 30.1964L24.4715 37.1964L25.0285 35.8036ZM8 29.5V14.9475H6.5V29.5H8ZM24.2962 14.9029L18.0462 19.6529L18.9538 20.8471L25.2038 16.0971L24.2962 14.9029ZM18.8198 19.5716L7.56976 14.2691L6.93024 15.6259L18.1802 20.9284L18.8198 19.5716Z" fill="black"/>
</svg>
