<svg width="45" height="45" viewBox="0 0 38 38" fill="none" xmlns="http://www.w3.org/2000/svg">
                                    <path d="M12.0303 23.4697C11.7374 23.1768 11.2626 23.1768 10.9697 23.4697C10.6768 23.7626 10.6768 24.2374 10.9697 24.5303L12.0303 23.4697ZM16.5 29L15.9697 29.5303C16.2626 29.8232 16.7374 29.8232 17.0303 29.5303L16.5 29ZM27.0303 19.5303C27.3232 19.2374 27.3232 18.7626 27.0303 18.4697C26.7374 18.1768 26.2626 18.1768 25.9697 18.4697L27.0303 19.5303ZM0.769424 12.1004C0.675765 12.5039 0.926928 12.9069 1.33041 13.0006C1.7339 13.0942 2.13692 12.8431 2.23058 12.4396L0.769424 12.1004ZM4 1.5V0.75C3.65112 0.75 3.34831 0.990569 3.26942 1.33041L4 1.5ZM19 2.25C19.4142 2.25 19.75 1.91421 19.75 1.5C19.75 1.08579 19.4142 0.75 19 0.75V2.25ZM2.25 12.27C2.25 11.8558 1.91421 11.52 1.5 11.52C1.08579 11.52 0.75 11.8558 0.75 12.27H2.25ZM1.5 36.5H0.75C0.75 36.9142 1.08579 37.25 1.5 37.25L1.5 36.5ZM36.5 36.5V37.25C36.9142 37.25 37.25 36.9142 37.25 36.5H36.5ZM37.25 12.27C37.25 11.8558 36.9142 11.52 36.5 11.52C36.0858 11.52 35.75 11.8558 35.75 12.27H37.25ZM1.5 11.52C1.08579 11.52 0.75 11.8558 0.75 12.27C0.75 12.6842 1.08579 13.02 1.5 13.02V11.52ZM19 13.02C19.4142 13.02 19.75 12.6842 19.75 12.27C19.75 11.8558 19.4142 11.52 19 11.52V13.02ZM18.25 12.27C18.25 12.6842 18.5858 13.02 19 13.02C19.4142 13.02 19.75 12.6842 19.75 12.27H18.25ZM19.75 1.5C19.75 1.08579 19.4142 0.75 19 0.75C18.5858 0.75 18.25 1.08579 18.25 1.5H19.75ZM19 11.52C18.5858 11.52 18.25 11.8558 18.25 12.27C18.25 12.6842 18.5858 13.02 19 13.02V11.52ZM36.5 13.02C36.9142 13.02 37.25 12.6842 37.25 12.27C37.25 11.8558 36.9142 11.52 36.5 11.52V13.02ZM19.75 12.27C19.75 11.8558 19.4142 11.52 19 11.52C18.5858 11.52 18.25 11.8558 18.25 12.27H19.75ZM18.25 16.5C18.25 16.9142 18.5858 17.25 19 17.25C19.4142 17.25 19.75 16.9142 19.75 16.5H18.25ZM19 0.75C18.5858 0.75 18.25 1.08579 18.25 1.5C18.25 1.91421 18.5858 2.25 19 2.25V0.75ZM34 1.5L34.7306 1.33041C34.6517 0.990569 34.3489 0.75 34 0.75V1.5ZM35.7694 12.4396C35.8631 12.8431 36.2661 13.0942 36.6696 13.0006C37.0731 12.9069 37.3242 12.5039 37.2306 12.1004L35.7694 12.4396ZM10.9697 24.5303L15.9697 29.5303L17.0303 28.4697L12.0303 23.4697L10.9697 24.5303ZM17.0303 29.5303L27.0303 19.5303L25.9697 18.4697L15.9697 28.4697L17.0303 29.5303ZM2.23058 12.4396L4.73058 1.66959L3.26942 1.33041L0.769424 12.1004L2.23058 12.4396ZM4 2.25H19V0.75H4V2.25ZM0.75 12.27V36.5H2.25V12.27H0.75ZM1.5 37.25H36.5V35.75H1.5V37.25ZM37.25 36.5V12.27H35.75V36.5H37.25ZM1.5 13.02H19V11.52H1.5V13.02ZM19.75 12.27V1.5H18.25V12.27H19.75ZM19 13.02H36.5V11.52H19V13.02ZM18.25 12.27V16.5H19.75V12.27H18.25ZM19 2.25H34V0.75H19V2.25ZM33.2694 1.66959L35.7694 12.4396L37.2306 12.1004L34.7306 1.33041L33.2694 1.66959Z" fill="#1a1a1a"/>
                                    </svg>