<svg width="80" height="80" viewBox="0 0 60 60" fill="none" xmlns="http://www.w3.org/2000/svg">
  <rect x="15" y="7.5" width="30" height="45" rx="3" stroke="#1a1a1a" stroke-width="1.5" stroke-linecap="round" stroke-linejoin="round"/>
  <path d="M30 46.25C29.6661 46.25 29.3522 46.12 29.1162 45.8839C28.88 45.6478 28.75 45.3339 28.75 45C28.75 44.7519 28.8229 44.5118 28.9607 44.3056C29.0985 44.0993 29.2925 43.9401 29.5216 43.8452C29.6741 43.782 29.8351 43.75 30.0001 43.75C30.0817 43.75 30.1638 43.7581 30.2439 43.774C30.4872 43.8224 30.7085 43.9407 30.8839 44.1161C31.0593 44.2915 31.1776 44.5129 31.226 44.7562C31.2744 44.9994 31.2498 45.2492 31.1549 45.4784C31.0599 45.7075 30.9008 45.9015 30.6945 46.0393C30.4882 46.1772 30.2481 46.25 30 46.25Z" fill="#1a1a1a"/>
  <path d="M30 47.5C29.337 47.5 28.7011 47.2366 28.2322 46.7678C27.7634 46.2989 27.5 45.663 27.5 45C27.5 44.5055 27.6466 44.0222 27.9213 43.6111C28.196 43.2 28.5865 42.8795 29.0433 42.6903C29.5001 42.5011 30.0028 42.4516 30.4877 42.548C30.9727 42.6445 31.4181 42.8826 31.7678 43.2322C32.1174 43.5819 32.3555 44.0273 32.452 44.5123C32.5484 44.9972 32.4989 45.4999 32.3097 45.9567C32.1205 46.4135 31.8 46.804 31.3889 47.0787C30.9778 47.3534 30.4945 47.5 30 47.5Z" fill="#1a1a1a"/>
</svg>