<svg width="80" height="80" viewBox="0 0 60 60" fill="none" xmlns="http://www.w3.org/2000/svg">
  <path fill-rule="evenodd" clip-rule="evenodd" d="M28.25 47.5C27.3336 47.5 26.5518 46.8367 26.4025 45.9325C26.2652 45.201 25.7385 44.6033 25.03 44.375C24.4528 44.1768 23.8883 43.943 23.34 43.675C22.6876 43.3413 21.9049 43.3912 21.3 43.805C20.5681 44.3313 19.5626 44.2498 18.925 43.6125L16.445 41.1325C15.7776 40.465 15.6909 39.4127 16.24 38.645C16.6635 38.0262 16.7245 37.2285 16.4 36.5525C16.1862 36.0829 15.9976 35.6022 15.835 35.1125C15.6022 34.3408 14.9595 33.7626 14.1675 33.6125C13.2125 33.4599 12.5074 32.6396 12.5 31.6725V28.57C12.4949 27.4552 13.3001 26.5017 14.4 26.32C15.2344 26.1613 15.9312 25.5898 16.25 24.8025C16.345 24.5808 16.445 24.3608 16.55 24.1425C16.9741 23.3261 16.9155 22.3428 16.3975 21.5825C15.7497 20.6822 15.8492 19.4452 16.6325 18.66L18.455 16.8375C19.3539 15.9383 20.7715 15.8219 21.805 16.5625L21.8625 16.6025C22.6342 17.1219 23.6162 17.216 24.4725 16.8525C25.3886 16.5228 26.0637 15.7356 26.25 14.78L26.275 14.695C26.4809 13.4299 27.5733 12.5005 28.855 12.5H31.055C32.3713 12.4994 33.4947 13.4514 33.71 14.75L33.75 14.925C33.9267 15.8404 34.5669 16.598 35.44 16.925C36.2815 17.2862 37.2492 17.1919 38.005 16.675L38.13 16.585C39.1903 15.8209 40.6483 15.9384 41.5725 16.8625L43.25 18.5425C44.0907 19.3879 44.1964 20.7173 43.5 21.685C42.9545 22.4938 42.8848 23.5331 43.3175 24.4075L43.425 24.6575C43.7755 25.5111 44.5335 26.13 45.44 26.3025C46.6248 26.4956 47.4961 27.5171 47.5 28.7175V31.5C47.4997 32.5584 46.7341 33.4614 45.69 33.635C44.8313 33.7997 44.1317 34.4215 43.8675 35.255C43.7509 35.5883 43.6209 35.9217 43.4775 36.255C43.144 36.9874 43.2179 37.8409 43.6725 38.505C44.2724 39.3395 44.1793 40.4858 43.4525 41.2125L41.125 43.5425C40.4594 44.208 39.4098 44.2937 38.645 43.745C38.0066 43.3089 37.1796 43.2608 36.495 43.62C36.0072 43.8616 35.5065 44.0761 34.995 44.2625C34.28 44.5092 33.7529 45.1213 33.615 45.865C33.4693 46.8007 32.667 47.4929 31.72 47.5H28.25Z" stroke="#1a1a1a" stroke-width="1.5" stroke-linecap="round" stroke-linejoin="round"/>
  <path fill-rule="evenodd" clip-rule="evenodd" d="M35.8325 30C35.8325 33.2212 33.2212 35.8325 30 35.8325C26.7788 35.8325 24.1675 33.2212 24.1675 30C24.1675 26.7788 26.7788 24.1675 30 24.1675C33.2212 24.1675 35.8325 26.7788 35.8325 30Z" stroke="#1a1a1a" stroke-width="1.5" stroke-linecap="round" stroke-linejoin="round"/>
</svg>