<svg xmlns="http://www.w3.org/2000/svg" xmlns:xlink="http://www.w3.org/1999/xlink" version="1.1" width="1000" height="1000" viewBox="0 0 1000 1000" xml:space="preserve">
<desc>Created with Fabric.js 3.5.0</desc>
<defs>
</defs>
<rect x="0" y="0" width="100%" height="100%" fill="rgba(255,255,255,0)"/>
<g transform="matrix(1.8328 0 0 1.8328 499.9889 499.9889)" id="837026">
<path style="stroke: none; stroke-width: 1; stroke-dasharray: none; stroke-linecap: butt; stroke-dashoffset: 0; stroke-linejoin: miter; stroke-miterlimit: 4; is-custom-font: none; font-file-url: none; fill: rgb(255,210,64); fill-rule: nonzero; opacity: 1;" vector-effect="non-scaling-stroke" transform=" translate(-256, -256)" d="M 504 256 c 0 136.997 -111.043 248 -248 248 S 8 392.997 8 256 C 8 119.083 119.043 8 256 8 s 248 111.083 248 248 z m -248 50 c -25.405 0 -46 20.595 -46 46 s 20.595 46 46 46 s 46 -20.595 46 -46 s -20.595 -46 -46 -46 z m -43.673 -165.346 l 7.418 136 c 0.347 6.364 5.609 11.346 11.982 11.346 h 48.546 c 6.373 0 11.635 -4.982 11.982 -11.346 l 7.418 -136 c 0.375 -6.874 -5.098 -12.654 -11.982 -12.654 h -63.383 c -6.884 0 -12.356 5.78 -11.981 12.654 z" stroke-linecap="round"/>
</g>
</svg>